<svg xmlns="http://www.w3.org/2000/svg" viewBox="0 0 520 300" role="img" aria-label="Illustrative diagram of a new business separated from its industrial parent"><style>text{font-family:Arial,sans-serif}</style><defs><pattern id="dots" width="14" height="14" patternUnits="userSpaceOnUse"><circle cx="1" cy="1" r=".65" fill="#92979E"/></pattern></defs><rect width="520" height="300" fill="url(#dots)"/><path d="M64 115l120-64 120 64-120 66z" fill="#C9CCD0"/><path d="M64 115v85l120 65v-84z" fill="#AEB1B7"/><path d="M184 181l120-66v85l-120 65z" fill="#7D828B"/><path d="M315 78l72-39 72 39-72 39z" fill="#7B8FD2"/><path d="M315 78v70l72 39v-70z" fill="#4965C3"/><path d="M387 117l72-39v70l-72 39z" fill="#2849B8"/><path d="M64 115l120-64 120 64v85l-120 65-120-65Z" fill="none" stroke="#242C3B" stroke-width="1.2"/><path d="M315 78l72-39 72 39v70l-72 39-72-39Z" fill="none" stroke="#2849B8" stroke-width="1.2"/><path d="M258 196l92 46 87-43" fill="none" stroke="#2849B8" stroke-width="1.5" stroke-dasharray="4 5"/><text x="52" y="291" font-size="11" fill="#242C3B">Industrial parent</text><text x="345" y="24" font-size="11" fill="#2849B8">New venture</text></svg>
