<svg xmlns="http://www.w3.org/2000/svg" viewBox="0 0 520 300" role="img" aria-label="An abstract small component sits above a larger platform, with its connection indicated."><path d="M70 176 255 91 449 176 258 264Z" fill="#c2c9be"/><path d="M70 176v27l188 79v-18Z" fill="#a0ae9d"/><path d="m258 264 191-88v27l-191 79Z" fill="#899884"/><path d="M182 86 253 53 326 86 254 120Z" fill="#a17c86"/><path d="m182 86 72 34v44l-72-34Z" fill="#7d4557"/><path d="m254 120 72-34v44l-72 34Z" fill="#622b3d"/><path d="M254 167v54M183 132v32M326 132v32" stroke="#622b3d" stroke-width="1.3" stroke-dasharray="4 5"/><path d="M113 70h58M334 113h64M369 248h58" fill="none" stroke="#7b8679"/><g font-family="Manrope,Arial,sans-serif" font-size="11" fill="#424d40"><text x="49" y="73">Accessory</text><text x="407" y="117">Interface</text><text x="434" y="252">Platform</text></g></svg>
